<?xml version="1.0" encoding="UTF-8" standalone="no" ?>
<svg xmlns="http://www.w3.org/2000/svg" width="13.736px" height="12.760px" viewBox="0 -683 759 705" xmlns:xlink="http://www.w3.org/1999/xlink" style=""><defs><path id="MJX-17-NCM-I-1D445" d="M739 531C739 582 713 621 662 649C621 672 572 683 517 683L235 683C212 683 202 682 202 659C202 652 205 647 211 646C221 645 229 644 234 644C264 643 281 641 286 640C291 639 294 636 294 631C294 629 293 623 290 613L158 82C153 60 143 46 128 41C121 39 103 38 72 38C50 38 41 37 41 15C41 4 47-1 59 0L183 3L309 0C325-1 333 8 333 23C333 33 322 38 301 38C261 38 241 43 241 52C241 52 242 54 244 68L308 327L423 327C492 327 527 298 527 241C527 232 522 210 513 174C502 132 497 104 497 89C497 13 556-22 632-22C660-22 687-9 714 16C741 41 755 68 755 96C755 106 750 111 739 111C732 111 726 106 723 95C712 64 698 41 682 28C666 15 651 8 636 8C613 8 601 27 601 64C601 88 604 125 611 176C614 197 615 212 615 223C615 276 587 315 531 339C625 362 739 429 739 531M609 616C629 603 639 581 639 550C639 530 635 507 626 480C599 398 531 357 422 357L316 357L379 610C384 631 392 642 403 643C408 644 428 644 463 644C528 644 566 642 609 616Z"/></defs><g stroke="#000000" fill="#000000" stroke-width="0" transform="scale(1,-1)"><g data-mml-node="math" data-latex="R" data-semantic-structure="0"><g data-mml-node="mi" data-latex="R" data-semantic-type="identifier" data-semantic-role="latinletter" data-semantic-font="italic" data-semantic-annotation="clearspeak:simple;nemeth:number;depth:1" data-semantic-id="0" data-semantic-attributes="latex:R" aria-level="0" data-speech-node="true"><use data-c="1D445" xmlns:xlink="http://www.w3.org/1999/xlink" xlink:href="#MJX-17-NCM-I-1D445"/></g></g></g></svg>