<?xml version="1.0" encoding="UTF-8" standalone="no" ?>
<svg xmlns="http://www.w3.org/2000/svg" width="237.992px" height="55.384px" viewBox="0 -1952.3 13149 3060" xmlns:xlink="http://www.w3.org/1999/xlink" style=""><defs><path id="MJX-5-NCM-I-1D463" d="M369 391C369 383 378 370 394 350C410 330 418 307 418 281C418 252 404 203 375 134C354 86 306 18 247 18C201 18 178 45 178 100C178 139 197 208 235 307C243 328 247 345 247 357C247 407 213 442 163 442C119 442 84 417 59 367C39 326 29 300 29 287C29 278 34 273 45 273C58 273 60 279 64 293C87 373 119 413 160 413C173 413 180 404 180 385C180 369 175 347 164 318C127 219 108 152 108 115C108 64 125 29 159 10C186-4 214-11 243-11C332-11 394 85 420 162C452 256 468 325 468 369C468 418 452 442 421 442C396 442 369 416 369 391Z"/><path id="MJX-5-NCM-N-3D" d="M698 367L80 367C64 367 56 359 56 344C56 329 64 321 80 321L698 321C714 321 722 329 722 344C722 356 711 367 698 367M698 179L80 179C64 179 56 171 56 156C56 141 64 133 80 133L698 133C714 133 722 141 722 156C722 169 711 179 698 179Z"/><path id="MJX-5-NCM-N-33" d="M303 353C369 378 431 441 431 526C431 569 410 604 369 631C333 654 292 666 246 666C201 666 162 654 127 631C88 605 68 571 68 528C68 495 90 472 122 472C154 472 176 495 176 527C176 560 157 578 119 580C145 615 186 633 242 633C302 633 332 598 332 527C332 485 324 450 309 421C282 373 245 364 183 364C171 362 165 357 165 348C165 333 172 333 192 333L235 333C310 333 348 280 348 173C348 88 317 14 241 14C176 14 128 36 99 80C134 79 160 105 160 139C160 173 135 198 101 198C62 198 42 178 42 137C42 88 64 49 108 18C147-9 193-22 244-22C301-22 350-3 393 34C436 71 457 117 457 173C457 267 383 332 303 353Z"/><path id="MJX-5-NCM-N-2E" d="M192 53C192 82 168 106 139 106C110 106 86 82 86 53C86 24 110 0 139 0C168 0 192 24 192 53Z"/><path id="MJX-5-NCM-N-36" d="M383 504C416 504 432 521 432 555C432 627 378 666 304 666C221 666 155 627 106 548C63 480 42 403 42 316C42 189 65 100 112 47C152 1 198-22 251-22C312-22 362 1 401 47C438 91 457 144 457 205C457 266 439 318 403 361C365 407 316 431 257 431C205 431 165 402 138 346L138 352C138 465 166 561 226 605C252 624 279 633 306 633C342 633 368 623 385 602C351 602 334 583 334 553C334 525 355 504 383 504M344 340C355 317 361 272 361 206C361 141 356 98 345 76C325 35 294 14 251 14C222 14 200 24 184 44C171 60 162 74 158 85C146 116 140 163 140 227C140 255 144 282 151 308C164 355 201 399 256 399C295 399 325 379 344 340Z"/><path id="MJX-5-NCM-N-D7" d="M630 32C630 39 628 44 623 49L422 250L623 451C628 456 630 461 630 468C630 481 620 491 607 491C600 491 595 489 590 484L389 283L188 484C183 489 178 491 171 491C158 491 148 481 148 468C148 461 150 456 155 451L356 250L155 49C150 44 148 39 148 32C148 19 158 9 171 9C178 9 183 11 188 16L389 217L590 16C595 11 600 9 607 9C620 9 630 19 630 32Z"/><path id="MJX-5-NCM-S4-221A" d="M467-982L254 263L117-8C114-14 112-19 111-22C111-26 117-34 130-45L194 81L422-1250C459-1250 465-1250 471-1221L1020 1726C1020 1742 1012 1750 996 1750C983 1750 975 1739 971 1717Z"/><path id="MJX-5-NCM-I-1D454" d="M15-141C15-184 60-205 150-205C197-205 241-193 280-170C324-144 351-109 362-66L471 373C473 383 474 389 474 392C474 412 463 422 442 422C420 422 406 410 399 387C377 424 347 442 310 442C246 442 189 410 140 346C95 286 72 223 72 158C72 71 123-3 207-3C246-3 282 14 315 47L285-71C256-140 211-175 148-175C122-175 100-173 82-169C103-158 113-141 113-118C113-93 99-80 72-80C40-80 15-109 15-141M356 392C376 371 386 351 386 331C386 330 385 325 383 318L336 129C330 106 313 82 286 60C259 38 233 27 210 27C170 27 150 56 150 114C150 169 184 291 204 327C235 384 270 412 311 412C329 412 344 405 356 392Z"/><path id="MJX-5-NCM-I-1D445" d="M739 531C739 582 713 621 662 649C621 672 572 683 517 683L235 683C212 683 202 682 202 659C202 652 205 647 211 646C221 645 229 644 234 644C264 643 281 641 286 640C291 639 294 636 294 631C294 629 293 623 290 613L158 82C153 60 143 46 128 41C121 39 103 38 72 38C50 38 41 37 41 15C41 4 47-1 59 0L183 3L309 0C325-1 333 8 333 23C333 33 322 38 301 38C261 38 241 43 241 52C241 52 242 54 244 68L308 327L423 327C492 327 527 298 527 241C527 232 522 210 513 174C502 132 497 104 497 89C497 13 556-22 632-22C660-22 687-9 714 16C741 41 755 68 755 96C755 106 750 111 739 111C732 111 726 106 723 95C712 64 698 41 682 28C666 15 651 8 636 8C613 8 601 27 601 64C601 88 604 125 611 176C614 197 615 212 615 223C615 276 587 315 531 339C625 362 739 429 739 531M609 616C629 603 639 581 639 550C639 530 635 507 626 480C599 398 531 357 422 357L316 357L379 610C384 631 392 642 403 643C408 644 428 644 463 644C528 644 566 642 609 616Z"/><path id="MJX-5-NCM-N-28" d="M318-248C327-248 332-243 332-234C332-231 330-227 327-223C275-183 233-117 202-26C175 53 161 131 161 208L161 292C161 369 175 447 202 526C233 617 275 683 327 723C330 726 332 730 332 734C332 743 327 748 318 748C317 748 314 747 311 745C251 699 201 631 160 540C121 453 101 371 101 292L101 208C101 129 121 47 160-40C201-131 251-199 311-245C314-247 317-248 318-248Z"/><path id="MJX-5-NCM-I-1D707" d="M572 142C572 151 567 156 556 156C548 156 542 149 539 136C519 56 495 16 468 16C451 16 442 30 442 58C442 75 448 109 461 159L489 266C498 302 506 327 512 358L518 386C520 393 521 398 521 400C521 421 510 431 488 431C466 431 452 419 446 394L374 108C374 97 358 77 326 47C304 26 279 16 250 16C204 16 181 43 181 98C181 117 185 144 194 181L236 347C244 378 249 400 251 411C251 432 240 442 218 442C196 442 182 429 175 403L33-169C31-177 30-182 30-185C30-206 41-216 62-216C77-216 89-208 100-193C103-186 120-117 153 14C177-4 208-13 246-13C305-13 344 18 375 54C386 17 419-13 466-13C535-13 556 68 572 142Z"/><path id="MJX-5-NCM-N-2B" d="M698 274L413 274L413 559C413 575 405 583 389 583C373 583 365 575 365 559L365 274L80 274C64 274 56 266 56 250C56 234 64 226 80 226L365 226L365-59C365-75 373-83 389-83C405-83 413-75 413-59L413 226L698 226C714 226 722 234 722 250C722 263 711 274 698 274Z"/><path id="MJX-5-NCM-I-1D452" d="M124 129C124 153 129 186 139 227L188 227C253 227 303 235 339 250C372 264 394 284 405 309C412 326 415 342 415 355C415 410 363 442 307 442C268 442 229 432 190 412C113 372 46 281 46 171C46 69 105-11 204-11C257-11 304 2 345 27C379 48 404 69 420 90C427 99 430 106 430 109C430 120 425 126 414 126C409 126 404 122 398 114C365 70 324 42 277 30C246 22 223 18 206 18C149 18 124 72 124 129M375 355C375 289 311 256 182 256L147 256C166 322 194 366 232 387C262 404 287 413 307 413C343 413 375 391 375 355Z"/><path id="MJX-5-NCM-N-29" d="M78-245C138-199 188-131 229-40C268 47 288 129 288 208L288 292C288 371 268 453 229 540C188 631 138 699 78 745C75 747 72 748 71 748C62 748 57 743 57 734C57 730 59 726 62 723C114 683 156 617 187 526C214 447 228 369 228 292L228 208C228 131 214 53 187-26C156-117 114-183 62-223C59-227 57-231 57-234C57-243 62-248 71-248C72-248 75-247 78-245Z"/><path id="MJX-5-NCM-N-31" d="M269 666C228 624 168 603 89 603L89 564C141 564 184 572 217 588L217 82C217 64 213 52 204 47C195 42 170 39 130 39L95 39L95 0C120 2 174 3 257 3C340 3 394 2 419 0L419 39L384 39C343 39 318 42 310 47C302 52 297 64 297 82L297 636C297 660 295 666 269 666Z"/><path id="MJX-5-NCM-N-2212" d="M698 270L80 270C64 270 56 263 56 250C56 237 64 230 80 230L698 230C714 230 722 237 722 250C722 262 710 270 698 270Z"/></defs><g stroke="#000000" fill="#000000" stroke-width="0" transform="scale(1,-1)"><g data-mml-node="math" data-latex="v = 3.6 \times \sqrt{\frac{g \times R \times (\mu_R + e)}{1 - \mu_R \times e}}" data-semantic-type="relseq" data-semantic-role="equality" data-semantic-annotation="depth:1" data-semantic-id="30" data-semantic-children="0,29" data-semantic-content="1" data-semantic-attributes="latex:v = 3.6 \times \sqrt{\frac{g \times R \times (\mu_R + e)}{1 - \mu_R \times e}}" data-semantic-owns="0 1 29" aria-level="0" data-speech-node="true" data-semantic-structure="(30 0 1 (29 2 3 (28 (27 (17 4 5 6 7 (16 8 (15 (11 9 10) 12 13) 14)) (25 18 19 (26 (22 20 21) 23 24))))))"><g data-mml-node="mi" data-latex="v" data-semantic-type="identifier" data-semantic-role="latinletter" data-semantic-font="italic" data-semantic-annotation="clearspeak:simple;nemeth:number;depth:2" data-semantic-id="0" data-semantic-parent="30" data-semantic-attributes="latex:v" aria-level="1" data-speech-node="true"><use data-c="1D463" xmlns:xlink="http://www.w3.org/1999/xlink" xlink:href="#MJX-5-NCM-I-1D463"/></g><g data-mml-node="mo" data-latex="=" data-semantic-type="relation" data-semantic-role="equality" data-semantic-annotation="nemeth:number;depth:2" data-semantic-id="1" data-semantic-parent="30" data-semantic-attributes="latex:=" data-semantic-operator="relseq,=" aria-level="1" data-speech-node="true" transform="translate(762.8,0)"><use data-c="3D" xmlns:xlink="http://www.w3.org/1999/xlink" xlink:href="#MJX-5-NCM-N-3D"/></g><g data-mml-node="mrow" data-semantic-added="true" data-semantic-type="infixop" data-semantic-role="multiplication" data-semantic-annotation="depth:2" data-semantic-id="29" data-semantic-children="2,28" data-semantic-content="3" data-semantic-parent="30" data-semantic-owns="2 3 28" aria-level="1" data-speech-node="true" transform="translate(1818.6,0)"><g data-mml-node="mn" data-latex=".6" data-semantic-type="number" data-semantic-role="float" data-semantic-font="normal" data-semantic-annotation="clearspeak:simple;nemeth:number;depth:3" data-semantic-id="2" data-semantic-parent="29" data-semantic-attributes="latex:.6" aria-level="2" data-speech-node="true"><use data-c="33" xmlns:xlink="http://www.w3.org/1999/xlink" xlink:href="#MJX-5-NCM-N-33"/><use data-c="2E" xmlns:xlink="http://www.w3.org/1999/xlink" xlink:href="#MJX-5-NCM-N-2E" transform="translate(500,0)"/><use data-c="36" xmlns:xlink="http://www.w3.org/1999/xlink" xlink:href="#MJX-5-NCM-N-36" transform="translate(778,0)"/></g><g data-mml-node="mo" data-latex="\times" data-semantic-type="operator" data-semantic-role="multiplication" data-semantic-annotation="depth:3" data-semantic-id="3" data-semantic-parent="29" data-semantic-attributes="latex:\times" data-semantic-operator="infixop,×" aria-level="2" data-speech-node="true" transform="translate(1500.2,0)"><use data-c="D7" xmlns:xlink="http://www.w3.org/1999/xlink" xlink:href="#MJX-5-NCM-N-D7"/></g><g data-mml-node="msqrt" data-latex="\sqrt{\frac{g \times R \times (\mu_R + e)}{1 - \mu_R \times e}}" data-semantic-type="sqrt" data-semantic-role="unknown" data-semantic-annotation="depth:3" data-semantic-id="28" data-semantic-children="27" data-semantic-parent="29" data-semantic-attributes="latex:\sqrt{\frac{g \times R \times (\mu_R + e)}{1 - \mu_R \times e}}" data-semantic-owns="27" aria-level="2" data-speech-node="true" transform="translate(2500.4,0)"><g data-mml-node="mo" transform="translate(0,142.3)"><use data-c="221A" xmlns:xlink="http://www.w3.org/1999/xlink" xlink:href="#MJX-5-NCM-S4-221A"/></g><g transform="translate(1020,0)"><g data-mml-node="mfrac" data-latex="\frac{g \times R \times (\mu_R + e)}{1 - \mu_R \times e}" data-semantic-type="fraction" data-semantic-role="division" data-semantic-annotation="depth:4" data-semantic-id="27" data-semantic-children="17,25" data-semantic-parent="28" data-semantic-attributes="latex:\frac{g \times R \times (\mu_R + e)}{1 - \mu_R \times e}" data-semantic-owns="17 25" aria-level="3" data-speech-node="true"><g data-mml-node="mrow" data-latex="g \times R \times (\mu_R + e)" data-semantic-type="infixop" data-semantic-role="multiplication" data-semantic-annotation="depth:5" data-semantic-id="17" data-semantic-children="4,6,16" data-semantic-content="5,7" data-semantic-parent="27" data-semantic-attributes="latex:g \times R \times (\mu_R + e)" data-semantic-owns="4 5 6 7 16" aria-level="4" data-speech-node="true" transform="translate(220,708)"><g data-mml-node="mi" data-latex="g" data-semantic-type="identifier" data-semantic-role="simple function" data-semantic-font="italic" data-semantic-annotation="clearspeak:simple;depth:6" data-semantic-id="4" data-semantic-parent="17" data-semantic-attributes="latex:g" aria-level="5" data-speech-node="true"><use data-c="1D454" xmlns:xlink="http://www.w3.org/1999/xlink" xlink:href="#MJX-5-NCM-I-1D454"/></g><g data-mml-node="mo" data-latex="\times" data-semantic-type="operator" data-semantic-role="multiplication" data-semantic-annotation="depth:6" data-semantic-id="5" data-semantic-parent="17" data-semantic-attributes="latex:\times" data-semantic-operator="infixop,×" aria-level="5" data-speech-node="true" transform="translate(699.2,0)"><use data-c="D7" xmlns:xlink="http://www.w3.org/1999/xlink" xlink:href="#MJX-5-NCM-N-D7"/></g><g data-mml-node="mi" data-latex="R" data-semantic-type="identifier" data-semantic-role="latinletter" data-semantic-font="italic" data-semantic-annotation="clearspeak:simple;depth:6" data-semantic-id="6" data-semantic-parent="17" data-semantic-attributes="latex:R" aria-level="5" data-speech-node="true" transform="translate(1699.4,0)"><use data-c="1D445" xmlns:xlink="http://www.w3.org/1999/xlink" xlink:href="#MJX-5-NCM-I-1D445"/></g><g data-mml-node="mo" data-latex="\times" data-semantic-type="operator" data-semantic-role="multiplication" data-semantic-annotation="depth:6" data-semantic-id="7" data-semantic-parent="17" data-semantic-attributes="latex:\times" data-semantic-operator="infixop,×" aria-level="5" data-speech-node="true" transform="translate(2680.7,0)"><use data-c="D7" xmlns:xlink="http://www.w3.org/1999/xlink" xlink:href="#MJX-5-NCM-N-D7"/></g><g data-mml-node="mrow" data-semantic-added="true" data-semantic-type="fenced" data-semantic-role="leftright" data-semantic-annotation="depth:6" data-semantic-id="16" data-semantic-children="15" data-semantic-content="8,14" data-semantic-parent="17" data-semantic-owns="8 15 14" aria-level="5" data-speech-node="true" transform="translate(3680.9,0)"><g data-mml-node="mo" data-latex="(" data-semantic-type="fence" data-semantic-role="open" data-semantic-annotation="depth:7" data-semantic-id="8" data-semantic-parent="16" data-semantic-attributes="latex:(" data-semantic-operator="fenced" aria-level="6" data-speech-node="true"><use data-c="28" xmlns:xlink="http://www.w3.org/1999/xlink" xlink:href="#MJX-5-NCM-N-28"/></g><g data-mml-node="mrow" data-semantic-added="true" data-semantic-type="infixop" data-semantic-role="addition" data-semantic-annotation="depth:7" data-semantic-id="15" data-semantic-children="11,13" data-semantic-content="12" data-semantic-parent="16" data-semantic-owns="11 12 13" aria-level="6" data-speech-node="true" transform="translate(389,0)"><g data-mml-node="msub" data-latex="\mu_R" data-semantic-type="subscript" data-semantic-role="greekletter" data-semantic-annotation="depth:8" data-semantic-id="11" data-semantic-children="9,10" data-semantic-parent="15" data-semantic-attributes="latex:\mu_R" data-semantic-owns="9 10" aria-level="7" data-speech-node="true"><g data-mml-node="mi" data-latex="\mu" data-semantic-type="identifier" data-semantic-role="greekletter" data-semantic-font="italic" data-semantic-annotation="clearspeak:simple;depth:9" data-semantic-id="9" data-semantic-parent="11" data-semantic-attributes="latex:\mu" aria-level="8" data-speech-node="true"><use data-c="1D707" xmlns:xlink="http://www.w3.org/1999/xlink" xlink:href="#MJX-5-NCM-I-1D707"/></g><g data-mml-node="mi" transform="translate(636,-150) scale(0.707)" data-latex="R" data-semantic-type="identifier" data-semantic-role="latinletter" data-semantic-font="italic" data-semantic-annotation="clearspeak:simple;depth:9" data-semantic-id="10" data-semantic-parent="11" data-semantic-attributes="latex:R" aria-level="8" data-speech-node="true"><use data-c="1D445" xmlns:xlink="http://www.w3.org/1999/xlink" xlink:href="#MJX-5-NCM-I-1D445"/></g></g><g data-mml-node="mo" data-latex="+" data-semantic-type="operator" data-semantic-role="addition" data-semantic-annotation="depth:8" data-semantic-id="12" data-semantic-parent="15" data-semantic-attributes="latex:+" data-semantic-operator="infixop,+" aria-level="7" data-speech-node="true" transform="translate(1444.9,0)"><use data-c="2B" xmlns:xlink="http://www.w3.org/1999/xlink" xlink:href="#MJX-5-NCM-N-2B"/></g><g data-mml-node="mi" data-latex="e" data-semantic-type="identifier" data-semantic-role="latinletter" data-semantic-font="italic" data-semantic-annotation="clearspeak:simple;depth:8" data-semantic-id="13" data-semantic-parent="15" data-semantic-attributes="latex:e" aria-level="7" data-speech-node="true" transform="translate(2445.1,0)"><use data-c="1D452" xmlns:xlink="http://www.w3.org/1999/xlink" xlink:href="#MJX-5-NCM-I-1D452"/></g></g><g data-mml-node="mo" data-latex=")" data-semantic-type="fence" data-semantic-role="close" data-semantic-annotation="depth:7" data-semantic-id="14" data-semantic-parent="16" data-semantic-attributes="latex:)" data-semantic-operator="fenced" aria-level="6" data-speech-node="true" transform="translate(3300.1,0)"><use data-c="29" xmlns:xlink="http://www.w3.org/1999/xlink" xlink:href="#MJX-5-NCM-N-29"/></g></g></g><g data-mml-node="mrow" data-latex="1 - \mu_R \times e" data-semantic-type="infixop" data-semantic-role="subtraction" data-semantic-annotation="depth:5" data-semantic-id="25" data-semantic-children="18,26" data-semantic-content="19" data-semantic-parent="27" data-semantic-attributes="latex:1 - \mu_R \times e" data-semantic-owns="18 19 26" aria-level="4" data-speech-node="true" transform="translate(1588.2,-686)"><g data-mml-node="mn" data-latex="1" data-semantic-type="number" data-semantic-role="integer" data-semantic-font="normal" data-semantic-annotation="clearspeak:simple;depth:6" data-semantic-id="18" data-semantic-parent="25" data-semantic-attributes="latex:1" aria-level="5" data-speech-node="true"><use data-c="31" xmlns:xlink="http://www.w3.org/1999/xlink" xlink:href="#MJX-5-NCM-N-31"/></g><g data-mml-node="mo" data-latex="-" data-semantic-type="operator" data-semantic-role="subtraction" data-semantic-annotation="depth:6" data-semantic-id="19" data-semantic-parent="25" data-semantic-attributes="latex:-" data-semantic-operator="infixop,−" aria-level="5" data-speech-node="true" transform="translate(722.2,0)"><use data-c="2212" xmlns:xlink="http://www.w3.org/1999/xlink" xlink:href="#MJX-5-NCM-N-2212"/></g><g data-mml-node="mrow" data-semantic-added="true" data-semantic-type="infixop" data-semantic-role="multiplication" data-semantic-annotation="depth:6" data-semantic-id="26" data-semantic-children="22,24" data-semantic-content="23" data-semantic-parent="25" data-semantic-owns="22 23 24" aria-level="5" data-speech-node="true" transform="translate(1722.4,0)"><g data-mml-node="msub" data-latex="\mu_R" data-semantic-type="subscript" data-semantic-role="greekletter" data-semantic-annotation="depth:7" data-semantic-id="22" data-semantic-children="20,21" data-semantic-parent="26" data-semantic-attributes="latex:\mu_R" data-semantic-owns="20 21" aria-level="6" data-speech-node="true"><g data-mml-node="mi" data-latex="\mu" data-semantic-type="identifier" data-semantic-role="greekletter" data-semantic-font="italic" data-semantic-annotation="clearspeak:simple;depth:8" data-semantic-id="20" data-semantic-parent="22" data-semantic-attributes="latex:\mu" aria-level="7" data-speech-node="true"><use data-c="1D707" xmlns:xlink="http://www.w3.org/1999/xlink" xlink:href="#MJX-5-NCM-I-1D707"/></g><g data-mml-node="mi" transform="translate(636,-150) scale(0.707)" data-latex="R" data-semantic-type="identifier" data-semantic-role="latinletter" data-semantic-font="italic" data-semantic-annotation="clearspeak:simple;depth:8" data-semantic-id="21" data-semantic-parent="22" data-semantic-attributes="latex:R" aria-level="7" data-speech-node="true"><use data-c="1D445" xmlns:xlink="http://www.w3.org/1999/xlink" xlink:href="#MJX-5-NCM-I-1D445"/></g></g><g data-mml-node="mo" data-latex="\times" data-semantic-type="operator" data-semantic-role="multiplication" data-semantic-annotation="depth:7" data-semantic-id="23" data-semantic-parent="26" data-semantic-attributes="latex:\times" data-semantic-operator="infixop,×" aria-level="6" data-speech-node="true" transform="translate(1444.9,0)"><use data-c="D7" xmlns:xlink="http://www.w3.org/1999/xlink" xlink:href="#MJX-5-NCM-N-D7"/></g><g data-mml-node="mi" data-latex="e" data-semantic-type="identifier" data-semantic-role="latinletter" data-semantic-font="italic" data-semantic-annotation="clearspeak:simple;depth:7" data-semantic-id="24" data-semantic-parent="26" data-semantic-attributes="latex:e" aria-level="6" data-speech-node="true" transform="translate(2445.1,0)"><use data-c="1D452" xmlns:xlink="http://www.w3.org/1999/xlink" xlink:href="#MJX-5-NCM-I-1D452"/></g></g></g><rect width="7570" height="60" x="120" y="220"/></g></g><rect width="7810" height="60" x="1020" y="1832.3"/></g></g></g></g></svg>